<?xml version="1.0" encoding="UTF-8" standalone="no"?><svg xmlns="http://www.w3.org/2000/svg" xmlns:xlink="http://www.w3.org/1999/xlink" contentScriptType="application/ecmascript" contentStyleType="text/css" height="852px" preserveAspectRatio="none" style="width:1149px;height:852px;background:#FFFFFF;" version="1.1" viewBox="0 0 1149 852" width="1149px" zoomAndPan="magnify"><defs><filter height="300%" id="fssywnuz64eao" width="300%" x="-1" y="-1"><feGaussianBlur result="blurOut" stdDeviation="2.0"/><feColorMatrix in="blurOut" result="blurOut2" type="matrix" values="0 0 0 0 0 0 0 0 0 0 0 0 0 0 0 0 0 0 .4 0"/><feOffset dx="4.0" dy="4.0" in="blurOut2" result="blurOut3"/><feBlend in="SourceGraphic" in2="blurOut3" mode="normal"/></filter></defs><g><!--MD5=[d536a0487ffdcd5078d409192e94cc41]
cluster users ERD--><rect fill="#FFFFFF" filter="url(#fssywnuz64eao)" height="833" style="stroke:#000000;stroke-width:1.5;" width="1130" x="7" y="7"/><path d="M90,7 L90,16.4883 L80,26.4883 L7,26.4883 " fill="none" style="stroke:#000000;stroke-width:1.5;"/><text fill="#000000" font-family="sans-serif" font-size="14" font-weight="bold" lengthAdjust="spacing" textLength="73" x="10" y="21.5352">users ERD</text><!--MD5=[965545b2c666111da0de2ef0f6e127f0]
class users_clients--><rect codeLine="9" fill="#FEFECE" filter="url(#fssywnuz64eao)" height="169.6836" id="users_clients" style="stroke:#A80036;stroke-width:1.5;" width="153" x="388.5" y="48.5"/><text fill="#000000" font-family="sans-serif" font-size="12" lengthAdjust="spacing" textLength="73" x="428.5" y="65.1016">users_clients</text><line style="stroke:#A80036;stroke-width:1.5;" x1="389.5" x2="540.5" y1="72.6328" y2="72.6328"/><ellipse cx="399.5" cy="83.6328" rx="3" ry="3" style="stroke:#038048;stroke-width:1.0;fill:none;"/><text fill="#000000" font-family="sans-serif" font-size="11" lengthAdjust="spacing" textLength="73" x="408.5" y="87.2676">id: INT  «Gen»</text><line style="stroke:#A80036;stroke-width:1.0;" x1="389.5" x2="540.5" y1="93.5879" y2="93.5879"/><line style="stroke:#A80036;stroke-width:1.0;" x1="389.5" x2="540.5" y1="95.5879" y2="95.5879"/><text fill="#000000" font-family="sans-serif" font-size="11" lengthAdjust="spacing" textLength="88" x="408.5" y="108.2227">name: VARCHAR</text><polygon fill="none" points="399.5,112.543,403.5,116.543,399.5,120.543,395.5,116.543" style="stroke:#B38D22;stroke-width:1.0;"/><text fill="#000000" font-family="sans-serif" font-size="11" lengthAdjust="spacing" textLength="104" x="408.5" y="121.1777">client_id: VARCHAR</text><text fill="#000000" font-family="sans-serif" font-size="11" lengthAdjust="spacing" textLength="127" x="408.5" y="134.1328">client_secret: VARCHAR</text><text fill="#000000" font-family="sans-serif" font-size="11" lengthAdjust="spacing" textLength="122" x="408.5" y="147.0879">redirect_uri: VARCHAR</text><text fill="#000000" font-family="sans-serif" font-size="11" lengthAdjust="spacing" textLength="123" x="408.5" y="160.043">auto_approve: TINYINT</text><text fill="#000000" font-family="sans-serif" font-size="11" lengthAdjust="spacing" textLength="117" x="408.5" y="172.998">autonomous: TINYINT</text><text fill="#000000" font-family="sans-serif" font-size="11" lengthAdjust="spacing" textLength="70" x="408.5" y="185.9531">status: ENUM</text><text fill="#000000" font-family="sans-serif" font-size="11" lengthAdjust="spacing" textLength="108" x="408.5" y="198.9082">suspended: TINYINT</text><text fill="#000000" font-family="sans-serif" font-size="11" lengthAdjust="spacing" textLength="88" x="408.5" y="211.8633">notes: TINYTEXT</text><!--MD5=[0797f4fad5a962fd7d6fb857745a0cb7]
class users_sessions--><rect codeLine="22" fill="#FEFECE" filter="url(#fssywnuz64eao)" height="182.6387" id="users_sessions" style="stroke:#A80036;stroke-width:1.5;" width="157" x="386.5" y="285"/><text fill="#000000" font-family="sans-serif" font-size="12" lengthAdjust="spacing" textLength="85" x="422.5" y="301.6016">users_sessions</text><line style="stroke:#A80036;stroke-width:1.5;" x1="387.5" x2="542.5" y1="309.1328" y2="309.1328"/><ellipse cx="397.5" cy="320.1328" rx="3" ry="3" style="stroke:#038048;stroke-width:1.0;fill:none;"/><text fill="#000000" font-family="sans-serif" font-size="11" lengthAdjust="spacing" textLength="70" x="406.5" y="323.7676">id: INT «Gen»</text><line style="stroke:#A80036;stroke-width:1.0;" x1="387.5" x2="542.5" y1="330.0879" y2="330.0879"/><line style="stroke:#A80036;stroke-width:1.0;" x1="387.5" x2="542.5" y1="332.0879" y2="332.0879"/><polygon fill="none" points="397.5,336.0879,401.5,340.0879,397.5,344.0879,393.5,340.0879" style="stroke:#B38D22;stroke-width:1.0;"/><text fill="#000000" font-family="sans-serif" font-size="11" lengthAdjust="spacing" textLength="104" x="406.5" y="344.7227">client_id: VARCHAR</text><text fill="#000000" font-family="sans-serif" font-size="11" lengthAdjust="spacing" textLength="122" x="406.5" y="357.6777">redirect_uri: VARCHAR</text><text fill="#000000" font-family="sans-serif" font-size="11" lengthAdjust="spacing" textLength="98" x="406.5" y="370.6328">type_id: VARCHAR</text><text fill="#000000" font-family="sans-serif" font-size="11" lengthAdjust="spacing" textLength="60" x="406.5" y="383.5879">type: ENUM</text><text fill="#000000" font-family="sans-serif" font-size="11" lengthAdjust="spacing" textLength="59" x="406.5" y="396.543">code: TEXT</text><text fill="#000000" font-family="sans-serif" font-size="11" lengthAdjust="spacing" textLength="131" x="406.5" y="409.498">access_token: VARCHAR</text><text fill="#000000" font-family="sans-serif" font-size="11" lengthAdjust="spacing" textLength="66" x="406.5" y="422.4531">stage: ENUM</text><text fill="#000000" font-family="sans-serif" font-size="11" lengthAdjust="spacing" textLength="106" x="406.5" y="435.4082">first_requested: INT</text><text fill="#000000" font-family="sans-serif" font-size="11" lengthAdjust="spacing" textLength="93" x="406.5" y="448.3633">last_updated: INT</text><text fill="#000000" font-family="sans-serif" font-size="11" lengthAdjust="spacing" textLength="127" x="406.5" y="461.3184">limited_access: TINYINT</text><!--MD5=[38e26be9072b10ca4a37c860ecd3b3e5]
class users_sessionscopes--><rect codeLine="36" fill="#FEFECE" filter="url(#fssywnuz64eao)" height="91.9531" id="users_sessionscopes" style="stroke:#A80036;stroke-width:1.5;" width="157" x="293.5" y="528"/><text fill="#000000" font-family="sans-serif" font-size="12" lengthAdjust="spacing" textLength="119" x="312.5" y="544.6016">users_sessionscopes</text><line style="stroke:#A80036;stroke-width:1.5;" x1="294.5" x2="449.5" y1="552.1328" y2="552.1328"/><ellipse cx="304.5" cy="563.1328" rx="3" ry="3" style="stroke:#038048;stroke-width:1.0;fill:none;"/><text fill="#000000" font-family="sans-serif" font-size="11" lengthAdjust="spacing" textLength="70" x="313.5" y="566.7676">id: INT «Gen»</text><line style="stroke:#A80036;stroke-width:1.0;" x1="294.5" x2="449.5" y1="573.0879" y2="573.0879"/><line style="stroke:#A80036;stroke-width:1.0;" x1="294.5" x2="449.5" y1="575.0879" y2="575.0879"/><polygon fill="none" points="304.5,579.0879,308.5,583.0879,304.5,587.0879,300.5,583.0879" style="stroke:#B38D22;stroke-width:1.0;"/><text fill="#000000" font-family="sans-serif" font-size="11" lengthAdjust="spacing" textLength="81" x="313.5" y="587.7227">session_id: INT</text><text fill="#000000" font-family="sans-serif" font-size="11" lengthAdjust="spacing" textLength="131" x="313.5" y="600.6777">access_token: VARCHAR</text><polygon fill="none" points="304.5,604.998,308.5,608.998,304.5,612.998,300.5,608.998" style="stroke:#B38D22;stroke-width:1.0;"/><text fill="#000000" font-family="sans-serif" font-size="11" lengthAdjust="spacing" textLength="91" x="313.5" y="613.6328">scope: VARCHAR</text><!--MD5=[200d711a76ccce8111c6a03700df0aad]
class users_scopes--><rect codeLine="43" fill="#FEFECE" filter="url(#fssywnuz64eao)" height="91.9531" id="users_scopes" style="stroke:#A80036;stroke-width:1.5;" width="146" x="205" y="330.5"/><text fill="#000000" font-family="sans-serif" font-size="12" lengthAdjust="spacing" textLength="77" x="239.5" y="347.1016">users_scopes</text><line style="stroke:#A80036;stroke-width:1.5;" x1="206" x2="350" y1="354.6328" y2="354.6328"/><ellipse cx="216" cy="365.6328" rx="3" ry="3" style="stroke:#038048;stroke-width:1.0;fill:none;"/><text fill="#000000" font-family="sans-serif" font-size="11" lengthAdjust="spacing" textLength="70" x="225" y="369.2676">id: INT «Gen»</text><line style="stroke:#A80036;stroke-width:1.0;" x1="206" x2="350" y1="375.5879" y2="375.5879"/><line style="stroke:#A80036;stroke-width:1.0;" x1="206" x2="350" y1="377.5879" y2="377.5879"/><polygon fill="none" points="216,381.5879,220,385.5879,216,389.5879,212,385.5879" style="stroke:#B38D22;stroke-width:1.0;"/><text fill="#000000" font-family="sans-serif" font-size="11" lengthAdjust="spacing" textLength="91" x="225" y="390.2227">scope: VARCHAR</text><text fill="#000000" font-family="sans-serif" font-size="11" lengthAdjust="spacing" textLength="88" x="225" y="403.1777">name: VARCHAR</text><text fill="#000000" font-family="sans-serif" font-size="11" lengthAdjust="spacing" textLength="120" x="225" y="416.1328">description: VARCHAR</text><!--MD5=[9585c414c6d6778efc58567093182bd2]
class users_user_roles--><rect codeLine="53" fill="#FEFECE" filter="url(#fssywnuz64eao)" height="66.043" id="users_user_roles" style="stroke:#A80036;stroke-width:1.5;" width="102" x="845" y="719"/><text fill="#000000" font-family="sans-serif" font-size="12" lengthAdjust="spacing" textLength="96" x="848" y="735.6016">users_user_roles</text><line style="stroke:#A80036;stroke-width:1.5;" x1="846" x2="946" y1="743.1328" y2="743.1328"/><ellipse cx="856" cy="754.1328" rx="3" ry="3" style="stroke:#038048;stroke-width:1.0;fill:none;"/><text fill="#000000" font-family="sans-serif" font-size="11" lengthAdjust="spacing" textLength="64" x="865" y="757.7676">user_id: INT</text><ellipse cx="856" cy="767.0879" rx="3" ry="3" style="stroke:#038048;stroke-width:1.0;fill:none;"/><text fill="#000000" font-family="sans-serif" font-size="11" lengthAdjust="spacing" textLength="61" x="865" y="770.7227">role_id: INT</text><line style="stroke:#A80036;stroke-width:1.0;" x1="846" x2="946" y1="777.043" y2="777.043"/><line style="stroke:#A80036;stroke-width:1.0;" x1="846" x2="946" y1="779.043" y2="779.043"/><!--MD5=[535a8c600fd40cf49f98017ca9627530]
class users_permissions--><rect codeLine="58" fill="#FEFECE" filter="url(#fssywnuz64eao)" height="169.6836" id="users_permissions" style="stroke:#A80036;stroke-width:1.5;" width="146" x="689" y="291.5"/><text fill="#000000" font-family="sans-serif" font-size="12" lengthAdjust="spacing" textLength="106" x="709" y="308.1016">users_permissions</text><line style="stroke:#A80036;stroke-width:1.5;" x1="690" x2="834" y1="315.6328" y2="315.6328"/><ellipse cx="700" cy="326.6328" rx="3" ry="3" style="stroke:#038048;stroke-width:1.0;fill:none;"/><text fill="#000000" font-family="sans-serif" font-size="11" lengthAdjust="spacing" textLength="70" x="709" y="330.2676">id: INT «Gen»</text><line style="stroke:#A80036;stroke-width:1.0;" x1="690" x2="834" y1="336.5879" y2="336.5879"/><line style="stroke:#A80036;stroke-width:1.0;" x1="690" x2="834" y1="338.5879" y2="338.5879"/><text fill="#000000" font-family="sans-serif" font-size="11" lengthAdjust="spacing" textLength="82" x="709" y="351.2227">area: VARCHAR</text><text fill="#000000" font-family="sans-serif" font-size="11" lengthAdjust="spacing" textLength="119" x="709" y="364.1777">permission: VARCHAR</text><text fill="#000000" font-family="sans-serif" font-size="11" lengthAdjust="spacing" textLength="120" x="709" y="377.1328">description: VARCHAR</text><text fill="#000000" font-family="sans-serif" font-size="11" lengthAdjust="spacing" textLength="72" x="709" y="390.0879">actions: TEXT</text><polygon fill="none" points="700,394.4082,704,398.4082,700,402.4082,696,398.4082" style="stroke:#B38D22;stroke-width:1.0;"/><text fill="#000000" font-family="sans-serif" font-size="11" lengthAdjust="spacing" textLength="64" x="709" y="403.043">user_id: INT</text><text fill="#000000" font-family="sans-serif" font-size="11" lengthAdjust="spacing" textLength="80" x="709" y="415.998">created_at: INT</text><text fill="#000000" font-family="sans-serif" font-size="11" lengthAdjust="spacing" textLength="83" x="709" y="428.9531">created_by: INT</text><text fill="#000000" font-family="sans-serif" font-size="11" lengthAdjust="spacing" textLength="84" x="709" y="441.9082">updated_at: INT</text><text fill="#000000" font-family="sans-serif" font-size="11" lengthAdjust="spacing" textLength="87" x="709" y="454.8633">updated_by: INT</text><!--MD5=[f85fa7661c2d8865be928142a3391d06]
class users_metadata--><rect codeLine="71" fill="#FEFECE" filter="url(#fssywnuz64eao)" height="130.8184" id="users_metadata" style="stroke:#A80036;stroke-width:1.5;" width="113" x="576.5" y="68"/><text fill="#000000" font-family="sans-serif" font-size="12" lengthAdjust="spacing" textLength="92" x="587" y="84.6016">users_metadata</text><line style="stroke:#A80036;stroke-width:1.5;" x1="577.5" x2="688.5" y1="92.1328" y2="92.1328"/><ellipse cx="587.5" cy="103.1328" rx="3" ry="3" style="stroke:#038048;stroke-width:1.0;fill:none;"/><text fill="#000000" font-family="sans-serif" font-size="11" lengthAdjust="spacing" textLength="70" x="596.5" y="106.7676">id: INT «Gen»</text><line style="stroke:#A80036;stroke-width:1.0;" x1="577.5" x2="688.5" y1="113.0879" y2="113.0879"/><line style="stroke:#A80036;stroke-width:1.0;" x1="577.5" x2="688.5" y1="115.0879" y2="115.0879"/><polygon fill="none" points="587.5,119.0879,591.5,123.0879,587.5,127.0879,583.5,123.0879" style="stroke:#B38D22;stroke-width:1.0;"/><text fill="#000000" font-family="sans-serif" font-size="11" lengthAdjust="spacing" textLength="75" x="596.5" y="127.7227">parent_id: INT</text><text fill="#000000" font-family="sans-serif" font-size="11" lengthAdjust="spacing" textLength="77" x="596.5" y="140.6777">key: VARCHAR</text><text fill="#000000" font-family="sans-serif" font-size="11" lengthAdjust="spacing" textLength="87" x="596.5" y="153.6328">value: VARCHAR</text><polygon fill="none" points="587.5,157.9531,591.5,161.9531,587.5,165.9531,583.5,161.9531" style="stroke:#B38D22;stroke-width:1.0;"/><text fill="#000000" font-family="sans-serif" font-size="11" lengthAdjust="spacing" textLength="64" x="596.5" y="166.5879">user_id: INT</text><text fill="#000000" font-family="sans-serif" font-size="11" lengthAdjust="spacing" textLength="80" x="596.5" y="179.543">created_at: INT</text><text fill="#000000" font-family="sans-serif" font-size="11" lengthAdjust="spacing" textLength="84" x="596.5" y="192.498">updated_at: INT</text><!--MD5=[aaecc1b0081ba1402645fc81db88ac3c]
class users_providers--><rect codeLine="81" fill="#FEFECE" filter="url(#fssywnuz64eao)" height="182.6387" id="users_providers" style="stroke:#A80036;stroke-width:1.5;" width="160" x="943" y="42"/><text fill="#000000" font-family="sans-serif" font-size="12" lengthAdjust="spacing" textLength="92" x="977" y="58.6016">users_providers</text><line style="stroke:#A80036;stroke-width:1.5;" x1="944" x2="1102" y1="66.1328" y2="66.1328"/><ellipse cx="954" cy="77.1328" rx="3" ry="3" style="stroke:#038048;stroke-width:1.0;fill:none;"/><text fill="#000000" font-family="sans-serif" font-size="11" lengthAdjust="spacing" textLength="70" x="963" y="80.7676">id: INT «Gen»</text><line style="stroke:#A80036;stroke-width:1.0;" x1="944" x2="1102" y1="87.0879" y2="87.0879"/><line style="stroke:#A80036;stroke-width:1.0;" x1="944" x2="1102" y1="89.0879" y2="89.0879"/><polygon fill="none" points="954,93.0879,958,97.0879,954,101.0879,950,97.0879" style="stroke:#B38D22;stroke-width:1.0;"/><text fill="#000000" font-family="sans-serif" font-size="11" lengthAdjust="spacing" textLength="75" x="963" y="101.7227">parent_id: INT</text><text fill="#000000" font-family="sans-serif" font-size="11" lengthAdjust="spacing" textLength="105" x="963" y="114.6777">provider: VARCHAR</text><text fill="#000000" font-family="sans-serif" font-size="11" lengthAdjust="spacing" textLength="76" x="963" y="127.6328">uid: VARCHAR</text><text fill="#000000" font-family="sans-serif" font-size="11" lengthAdjust="spacing" textLength="92" x="963" y="140.5879">secret: VARCHAR</text><text fill="#000000" font-family="sans-serif" font-size="11" lengthAdjust="spacing" textLength="131" x="963" y="153.543">access_token: VARCHAR</text><text fill="#000000" font-family="sans-serif" font-size="11" lengthAdjust="spacing" textLength="64" x="963" y="166.498">expires: INT</text><text fill="#000000" font-family="sans-serif" font-size="11" lengthAdjust="spacing" textLength="134" x="963" y="179.4531">refresh_token: VARCHAR</text><polygon fill="none" points="954,183.7734,958,187.7734,954,191.7734,950,187.7734" style="stroke:#B38D22;stroke-width:1.0;"/><text fill="#000000" font-family="sans-serif" font-size="11" lengthAdjust="spacing" textLength="64" x="963" y="192.4082">user_id: INT</text><text fill="#000000" font-family="sans-serif" font-size="11" lengthAdjust="spacing" textLength="80" x="963" y="205.3633">created_at: INT</text><text fill="#000000" font-family="sans-serif" font-size="11" lengthAdjust="spacing" textLength="84" x="963" y="218.3184">updated_at: INT</text><!--MD5=[0123471e1de88c5d17da4285bc61e217]
class users_group_roles--><rect codeLine="95" fill="#FEFECE" filter="url(#fssywnuz64eao)" height="66.043" id="users_group_roles" style="stroke:#A80036;stroke-width:1.5;" width="111" x="549.5" y="719"/><text fill="#000000" font-family="sans-serif" font-size="12" lengthAdjust="spacing" textLength="105" x="552.5" y="735.6016">users_group_roles</text><line style="stroke:#A80036;stroke-width:1.5;" x1="550.5" x2="659.5" y1="743.1328" y2="743.1328"/><ellipse cx="560.5" cy="754.1328" rx="3" ry="3" style="stroke:#038048;stroke-width:1.0;fill:none;"/><text fill="#000000" font-family="sans-serif" font-size="11" lengthAdjust="spacing" textLength="73" x="569.5" y="757.7676">group_id: INT</text><ellipse cx="560.5" cy="767.0879" rx="3" ry="3" style="stroke:#038048;stroke-width:1.0;fill:none;"/><text fill="#000000" font-family="sans-serif" font-size="11" lengthAdjust="spacing" textLength="61" x="569.5" y="770.7227">role_id: INT</text><line style="stroke:#A80036;stroke-width:1.0;" x1="550.5" x2="659.5" y1="777.043" y2="777.043"/><line style="stroke:#A80036;stroke-width:1.0;" x1="550.5" x2="659.5" y1="779.043" y2="779.043"/><!--MD5=[e83b5e9a36f6b7b42dd235ed8c31ac23]
class users_role_permissions--><rect codeLine="100" fill="#FEFECE" filter="url(#fssywnuz64eao)" height="91.9531" id="users_role_permissions" style="stroke:#A80036;stroke-width:1.5;" width="140" x="687" y="528"/><text fill="#000000" font-family="sans-serif" font-size="12" lengthAdjust="spacing" textLength="134" x="690" y="544.6016">users_role_permissions</text><line style="stroke:#A80036;stroke-width:1.5;" x1="688" x2="826" y1="552.1328" y2="552.1328"/><ellipse cx="698" cy="563.1328" rx="3" ry="3" style="stroke:#038048;stroke-width:1.0;fill:none;"/><text fill="#000000" font-family="sans-serif" font-size="11" lengthAdjust="spacing" textLength="70" x="707" y="566.7676">id: INT «Gen»</text><line style="stroke:#A80036;stroke-width:1.0;" x1="688" x2="826" y1="573.0879" y2="573.0879"/><line style="stroke:#A80036;stroke-width:1.0;" x1="688" x2="826" y1="575.0879" y2="575.0879"/><polygon fill="none" points="698,579.0879,702,583.0879,698,587.0879,694,583.0879" style="stroke:#B38D22;stroke-width:1.0;"/><text fill="#000000" font-family="sans-serif" font-size="11" lengthAdjust="spacing" textLength="61" x="707" y="587.7227">role_id: INT</text><polygon fill="none" points="698,592.043,702,596.043,698,600.043,694,596.043" style="stroke:#B38D22;stroke-width:1.0;"/><text fill="#000000" font-family="sans-serif" font-size="11" lengthAdjust="spacing" textLength="74" x="707" y="600.6777">perms_id: INT</text><text fill="#000000" font-family="sans-serif" font-size="11" lengthAdjust="spacing" textLength="72" x="707" y="613.6328">actions: TEXT</text><!--MD5=[716c52c3ac3ef069fc420ab84880a911]
class users_roles--><rect codeLine="107" fill="#FEFECE" filter="url(#fssywnuz64eao)" height="143.7734" id="users_roles" style="stroke:#A80036;stroke-width:1.5;" width="114" x="696" y="680"/><text fill="#000000" font-family="sans-serif" font-size="12" lengthAdjust="spacing" textLength="65" x="720.5" y="696.6016">users_roles</text><line style="stroke:#A80036;stroke-width:1.5;" x1="697" x2="809" y1="704.1328" y2="704.1328"/><ellipse cx="707" cy="715.1328" rx="3" ry="3" style="stroke:#038048;stroke-width:1.0;fill:none;"/><text fill="#000000" font-family="sans-serif" font-size="11" lengthAdjust="spacing" textLength="70" x="716" y="718.7676">id: INT «Gen»</text><line style="stroke:#A80036;stroke-width:1.0;" x1="697" x2="809" y1="725.0879" y2="725.0879"/><line style="stroke:#A80036;stroke-width:1.0;" x1="697" x2="809" y1="727.0879" y2="727.0879"/><text fill="#000000" font-family="sans-serif" font-size="11" lengthAdjust="spacing" textLength="88" x="716" y="739.7227">name: VARCHAR</text><text fill="#000000" font-family="sans-serif" font-size="11" lengthAdjust="spacing" textLength="62" x="716" y="752.6777">filter: ENUM</text><polygon fill="none" points="707,756.998,711,760.998,707,764.998,703,760.998" style="stroke:#B38D22;stroke-width:1.0;"/><text fill="#000000" font-family="sans-serif" font-size="11" lengthAdjust="spacing" textLength="64" x="716" y="765.6328">user_id: INT</text><text fill="#000000" font-family="sans-serif" font-size="11" lengthAdjust="spacing" textLength="80" x="716" y="778.5879">created_at: INT</text><text fill="#000000" font-family="sans-serif" font-size="11" lengthAdjust="spacing" textLength="83" x="716" y="791.543">created_by: INT</text><text fill="#000000" font-family="sans-serif" font-size="11" lengthAdjust="spacing" textLength="84" x="716" y="804.498">updated_at: INT</text><text fill="#000000" font-family="sans-serif" font-size="11" lengthAdjust="spacing" textLength="87" x="716" y="817.4531">updated_by: INT</text><!--MD5=[43559222ba0d9c97fa5916e88e8af9dd]
class users_groups--><rect codeLine="118" fill="#FEFECE" filter="url(#fssywnuz64eao)" height="104.9082" id="users_groups" style="stroke:#A80036;stroke-width:1.5;" width="114" x="400" y="699.5"/><text fill="#000000" font-family="sans-serif" font-size="12" lengthAdjust="spacing" textLength="77" x="418.5" y="716.1016">users_groups</text><line style="stroke:#A80036;stroke-width:1.5;" x1="401" x2="513" y1="723.6328" y2="723.6328"/><ellipse cx="411" cy="734.6328" rx="3" ry="3" style="stroke:#038048;stroke-width:1.0;fill:none;"/><text fill="#000000" font-family="sans-serif" font-size="11" lengthAdjust="spacing" textLength="70" x="420" y="738.2676">id: INT «Gen»</text><line style="stroke:#A80036;stroke-width:1.0;" x1="401" x2="513" y1="744.5879" y2="744.5879"/><line style="stroke:#A80036;stroke-width:1.0;" x1="401" x2="513" y1="746.5879" y2="746.5879"/><text fill="#000000" font-family="sans-serif" font-size="11" lengthAdjust="spacing" textLength="88" x="420" y="759.2227">name: VARCHAR</text><polygon fill="none" points="411,763.543,415,767.543,411,771.543,407,767.543" style="stroke:#B38D22;stroke-width:1.0;"/><text fill="#000000" font-family="sans-serif" font-size="11" lengthAdjust="spacing" textLength="64" x="420" y="772.1777">user_id: INT</text><text fill="#000000" font-family="sans-serif" font-size="11" lengthAdjust="spacing" textLength="80" x="420" y="785.1328">created_at: INT</text><text fill="#000000" font-family="sans-serif" font-size="11" lengthAdjust="spacing" textLength="84" x="420" y="798.0879">updated_at: INT</text><!--MD5=[8413f8248b2da7966d2de021109ec289]
class users--><rect codeLine="126" fill="#FEFECE" filter="url(#fssywnuz64eao)" height="182.6387" id="users" style="stroke:#A80036;stroke-width:1.5;" width="165" x="742.5" y="42"/><text fill="#000000" font-family="sans-serif" font-size="12" lengthAdjust="spacing" textLength="31" x="809.5" y="58.6016">users</text><line style="stroke:#A80036;stroke-width:1.5;" x1="743.5" x2="906.5" y1="66.1328" y2="66.1328"/><ellipse cx="753.5" cy="77.1328" rx="3" ry="3" style="stroke:#038048;stroke-width:1.0;fill:none;"/><text fill="#000000" font-family="sans-serif" font-size="11" lengthAdjust="spacing" textLength="70" x="762.5" y="80.7676">id: INT «Gen»</text><line style="stroke:#A80036;stroke-width:1.0;" x1="743.5" x2="906.5" y1="87.0879" y2="87.0879"/><line style="stroke:#A80036;stroke-width:1.0;" x1="743.5" x2="906.5" y1="89.0879" y2="89.0879"/><text fill="#000000" font-family="sans-serif" font-size="11" lengthAdjust="spacing" textLength="112" x="762.5" y="101.7227">username: VARCHAR</text><text fill="#000000" font-family="sans-serif" font-size="11" lengthAdjust="spacing" textLength="111" x="762.5" y="114.6777">password: VARCHAR</text><polygon fill="none" points="753.5,118.998,757.5,122.998,753.5,126.998,749.5,122.998" style="stroke:#B38D22;stroke-width:1.0;"/><text fill="#000000" font-family="sans-serif" font-size="11" lengthAdjust="spacing" textLength="73" x="762.5" y="127.6328">group_id: INT</text><text fill="#000000" font-family="sans-serif" font-size="11" lengthAdjust="spacing" textLength="87" x="762.5" y="140.5879">email: VARCHAR</text><text fill="#000000" font-family="sans-serif" font-size="11" lengthAdjust="spacing" textLength="111" x="762.5" y="153.543">last_login: VARCHAR</text><text fill="#000000" font-family="sans-serif" font-size="11" lengthAdjust="spacing" textLength="139" x="762.5" y="166.498">previous_login: VARCHAR</text><text fill="#000000" font-family="sans-serif" font-size="11" lengthAdjust="spacing" textLength="118" x="762.5" y="179.4531">login_hash: VARCHAR</text><text fill="#000000" font-family="sans-serif" font-size="11" lengthAdjust="spacing" textLength="64" x="762.5" y="192.4082">user_id: INT</text><text fill="#000000" font-family="sans-serif" font-size="11" lengthAdjust="spacing" textLength="80" x="762.5" y="205.3633">created_at: INT</text><text fill="#000000" font-family="sans-serif" font-size="11" lengthAdjust="spacing" textLength="84" x="762.5" y="218.3184">updated_at: INT</text><!--MD5=[1942f2ac9b92e84ab7b372b287dc90a3]
class users_user_permissions--><rect codeLine="151" fill="#FEFECE" filter="url(#fssywnuz64eao)" height="91.9531" id="users_user_permissions" style="stroke:#A80036;stroke-width:1.5;" width="143" x="210.5" y="87.5"/><text fill="#000000" font-family="sans-serif" font-size="12" lengthAdjust="spacing" textLength="137" x="213.5" y="104.1016">users_user_permissions</text><line style="stroke:#A80036;stroke-width:1.5;" x1="211.5" x2="352.5" y1="111.6328" y2="111.6328"/><ellipse cx="221.5" cy="122.6328" rx="3" ry="3" style="stroke:#038048;stroke-width:1.0;fill:none;"/><text fill="#000000" font-family="sans-serif" font-size="11" lengthAdjust="spacing" textLength="70" x="230.5" y="126.2676">id: INT «Gen»</text><line style="stroke:#A80036;stroke-width:1.0;" x1="211.5" x2="352.5" y1="132.5879" y2="132.5879"/><line style="stroke:#A80036;stroke-width:1.0;" x1="211.5" x2="352.5" y1="134.5879" y2="134.5879"/><polygon fill="none" points="221.5,138.5879,225.5,142.5879,221.5,146.5879,217.5,142.5879" style="stroke:#B38D22;stroke-width:1.0;"/><text fill="#000000" font-family="sans-serif" font-size="11" lengthAdjust="spacing" textLength="64" x="230.5" y="147.2227">user_id: INT</text><polygon fill="none" points="221.5,151.543,225.5,155.543,221.5,159.543,217.5,155.543" style="stroke:#B38D22;stroke-width:1.0;"/><text fill="#000000" font-family="sans-serif" font-size="11" lengthAdjust="spacing" textLength="74" x="230.5" y="160.1777">perms_id: INT</text><text fill="#000000" font-family="sans-serif" font-size="11" lengthAdjust="spacing" textLength="72" x="230.5" y="173.1328">actions: TEXT</text><!--MD5=[f6dafe1470b7d6deaf301579f8023426]
class users_group_permissions--><rect codeLine="158" fill="#FEFECE" filter="url(#fssywnuz64eao)" height="91.9531" id="users_group_permissions" style="stroke:#A80036;stroke-width:1.5;" width="152" x="23" y="87.5"/><text fill="#000000" font-family="sans-serif" font-size="12" lengthAdjust="spacing" textLength="146" x="26" y="104.1016">users_group_permissions</text><line style="stroke:#A80036;stroke-width:1.5;" x1="24" x2="174" y1="111.6328" y2="111.6328"/><ellipse cx="34" cy="122.6328" rx="3" ry="3" style="stroke:#038048;stroke-width:1.0;fill:none;"/><text fill="#000000" font-family="sans-serif" font-size="11" lengthAdjust="spacing" textLength="70" x="43" y="126.2676">id: INT «Gen»</text><line style="stroke:#A80036;stroke-width:1.0;" x1="24" x2="174" y1="132.5879" y2="132.5879"/><line style="stroke:#A80036;stroke-width:1.0;" x1="24" x2="174" y1="134.5879" y2="134.5879"/><polygon fill="none" points="34,138.5879,38,142.5879,34,146.5879,30,142.5879" style="stroke:#B38D22;stroke-width:1.0;"/><text fill="#000000" font-family="sans-serif" font-size="11" lengthAdjust="spacing" textLength="73" x="43" y="147.2227">group_id: INT</text><polygon fill="none" points="34,151.543,38,155.543,34,159.543,30,155.543" style="stroke:#B38D22;stroke-width:1.0;"/><text fill="#000000" font-family="sans-serif" font-size="11" lengthAdjust="spacing" textLength="74" x="43" y="160.1777">perms_id: INT</text><text fill="#000000" font-family="sans-serif" font-size="11" lengthAdjust="spacing" textLength="72" x="43" y="173.1328">actions: TEXT</text><!--MD5=[13826e48e8933f9d664d66fad1f169b5]
link users_clients to users_sessions--><path codeLine="50" d="M465,226.83 C465,226.83 465,276.76 465,276.76 " fill="none" id="users_clients-users_sessions" style="stroke:#A80036;stroke-width:1.0;stroke-dasharray:7.0,7.0;"/><line style="stroke:#A80036;stroke-width:1.0;" x1="465" x2="471" y1="276.76" y2="284.76"/><line style="stroke:#A80036;stroke-width:1.0;" x1="465" x2="459" y1="276.76" y2="284.76"/><line style="stroke:#A80036;stroke-width:1.0;" x1="465" x2="465" y1="276.76" y2="284.76"/><ellipse cx="465" cy="270.76" rx="4" ry="4" style="stroke:#A80036;stroke-width:1.0;fill:none;"/><line style="stroke:#A80036;stroke-width:1.0;fill:none;" x1="465" x2="465" y1="229.83" y2="218.83"/><ellipse cx="465" cy="229.83" rx="4" ry="4" style="stroke:#A80036;stroke-width:1.0;fill:none;"/><line style="stroke:#A80036;stroke-width:1.0;fill:none;" x1="461" x2="469" y1="222.83" y2="222.83"/><!--MD5=[449b56da47d53c84fa42e32c8d42adf8]
link users_sessions to users_sessionscopes--><path codeLine="51" d="M418.5,476.02 C418.5,476.02 418.5,519.96 418.5,519.96 " fill="none" id="users_sessions-users_sessionscopes" style="stroke:#A80036;stroke-width:1.0;stroke-dasharray:7.0,7.0;"/><line style="stroke:#A80036;stroke-width:1.0;" x1="418.5" x2="424.5" y1="519.96" y2="527.96"/><line style="stroke:#A80036;stroke-width:1.0;" x1="418.5" x2="412.5" y1="519.96" y2="527.96"/><line style="stroke:#A80036;stroke-width:1.0;" x1="418.5" x2="418.5" y1="519.96" y2="527.96"/><ellipse cx="418.5" cy="513.96" rx="4" ry="4" style="stroke:#A80036;stroke-width:1.0;fill:none;"/><line style="stroke:#A80036;stroke-width:1.0;fill:none;" x1="418.5" x2="418.5" y1="479.02" y2="468.02"/><ellipse cx="418.5" cy="479.02" rx="4" ry="4" style="stroke:#A80036;stroke-width:1.0;fill:none;"/><line style="stroke:#A80036;stroke-width:1.0;fill:none;" x1="414.5" x2="422.5" y1="472.02" y2="472.02"/><!--MD5=[3a5d35af1bae49d1b11757567096f0ca]
link users_scopes to users_sessionscopes--><path codeLine="52" d="M322.25,430.8 C322.25,430.8 322.25,519.99 322.25,519.99 " fill="none" id="users_scopes-users_sessionscopes" style="stroke:#A80036;stroke-width:1.0;stroke-dasharray:7.0,7.0;"/><line style="stroke:#A80036;stroke-width:1.0;" x1="322.25" x2="328.25" y1="519.99" y2="527.99"/><line style="stroke:#A80036;stroke-width:1.0;" x1="322.25" x2="316.25" y1="519.99" y2="527.99"/><line style="stroke:#A80036;stroke-width:1.0;" x1="322.25" x2="322.25" y1="519.99" y2="527.99"/><ellipse cx="322.25" cy="513.99" rx="4" ry="4" style="stroke:#A80036;stroke-width:1.0;fill:none;"/><line style="stroke:#A80036;stroke-width:1.0;fill:none;" x1="322.25" x2="322.25" y1="433.8" y2="422.8"/><ellipse cx="322.25" cy="433.8" rx="4" ry="4" style="stroke:#A80036;stroke-width:1.0;fill:none;"/><line style="stroke:#A80036;stroke-width:1.0;fill:none;" x1="318.25" x2="326.25" y1="426.8" y2="426.8"/><!--MD5=[2057d2845c9370750448089660cae7ca]
link users_metadata to users--><path codeLine="140" d="M697.57,134 C697.57,134 734.16,134 734.16,134 " fill="none" id="users_metadata-users" style="stroke:#A80036;stroke-width:1.0;stroke-dasharray:7.0,7.0;"/><line style="stroke:#A80036;stroke-width:1.0;" x1="734.16" x2="742.16" y1="134" y2="128"/><line style="stroke:#A80036;stroke-width:1.0;" x1="734.16" x2="742.16" y1="134" y2="140"/><line style="stroke:#A80036;stroke-width:1.0;" x1="734.16" x2="742.16" y1="134" y2="134"/><line style="stroke:#A80036;stroke-width:1.0;" x1="732.16" x2="732.16" y1="130" y2="138"/><line style="stroke:#A80036;stroke-width:1.0;" x1="693.57" x2="693.57" y1="138" y2="130"/><line style="stroke:#A80036;stroke-width:1.0;" x1="696.57" x2="696.57" y1="138" y2="130"/><line style="stroke:#A80036;stroke-width:1.0;" x1="697.57" x2="689.57" y1="134" y2="134"/><!--MD5=[e903103939f0b92e8cd297c8f775727e]
link users to users_providers--><path codeLine="141" d="M915.54,134 C915.54,134 934.82,134 934.82,134 " fill="none" id="users-users_providers" style="stroke:#A80036;stroke-width:1.0;stroke-dasharray:7.0,7.0;"/><line style="stroke:#A80036;stroke-width:1.0;" x1="938.82" x2="938.82" y1="130" y2="138"/><line style="stroke:#A80036;stroke-width:1.0;" x1="935.82" x2="935.82" y1="130" y2="138"/><line style="stroke:#A80036;stroke-width:1.0;" x1="934.82" x2="942.82" y1="134" y2="134"/><line style="stroke:#A80036;stroke-width:1.0;" x1="915.54" x2="907.54" y1="134" y2="140"/><line style="stroke:#A80036;stroke-width:1.0;" x1="915.54" x2="907.54" y1="134" y2="128"/><line style="stroke:#A80036;stroke-width:1.0;" x1="915.54" x2="907.54" y1="134" y2="134"/><line style="stroke:#A80036;stroke-width:1.0;" x1="917.54" x2="917.54" y1="138" y2="130"/><!--MD5=[7086daa22ac6d069ea8053225e639dc6]
link users to users_permissions--><path codeLine="142" d="M788.75,233.02 C788.75,233.02 788.75,283.47 788.75,283.47 " fill="none" id="users-users_permissions" style="stroke:#A80036;stroke-width:1.0;stroke-dasharray:7.0,7.0;"/><line style="stroke:#A80036;stroke-width:1.0;" x1="792.75" x2="784.75" y1="287.47" y2="287.47"/><line style="stroke:#A80036;stroke-width:1.0;" x1="792.75" x2="784.75" y1="284.47" y2="284.47"/><line style="stroke:#A80036;stroke-width:1.0;" x1="788.75" x2="788.75" y1="283.47" y2="291.47"/><line style="stroke:#A80036;stroke-width:1.0;" x1="788.75" x2="782.75" y1="233.02" y2="225.02"/><line style="stroke:#A80036;stroke-width:1.0;" x1="788.75" x2="794.75" y1="233.02" y2="225.02"/><line style="stroke:#A80036;stroke-width:1.0;" x1="788.75" x2="788.75" y1="233.02" y2="225.02"/><line style="stroke:#A80036;stroke-width:1.0;" x1="784.75" x2="792.75" y1="235.02" y2="235.02"/><!--MD5=[f00625b804d09e39e782ea93a79b6934]
link users to users_user_roles--><path codeLine="143" d="M876.25,233.09 C876.25,233.09 876.25,710.79 876.25,710.79 " fill="none" id="users-users_user_roles" style="stroke:#A80036;stroke-width:1.0;stroke-dasharray:7.0,7.0;"/><line style="stroke:#A80036;stroke-width:1.0;" x1="876.25" x2="882.25" y1="710.79" y2="718.79"/><line style="stroke:#A80036;stroke-width:1.0;" x1="876.25" x2="870.25" y1="710.79" y2="718.79"/><line style="stroke:#A80036;stroke-width:1.0;" x1="876.25" x2="876.25" y1="710.79" y2="718.79"/><line style="stroke:#A80036;stroke-width:1.0;" x1="880.25" x2="872.25" y1="708.79" y2="708.79"/><line style="stroke:#A80036;stroke-width:1.0;" x1="872.25" x2="880.25" y1="229.09" y2="229.09"/><line style="stroke:#A80036;stroke-width:1.0;" x1="872.25" x2="880.25" y1="232.09" y2="232.09"/><line style="stroke:#A80036;stroke-width:1.0;" x1="876.25" x2="876.25" y1="233.09" y2="225.09"/><!--MD5=[eb5b3cdc2f852fde95bbe9882eed4ae7]
link users_roles to users_user_roles--><path codeLine="144" d="M818.34,752 C818.34,752 836.65,752 836.65,752 " fill="none" id="users_roles-users_user_roles" style="stroke:#A80036;stroke-width:1.0;stroke-dasharray:7.0,7.0;"/><line style="stroke:#A80036;stroke-width:1.0;" x1="836.65" x2="844.65" y1="752" y2="746"/><line style="stroke:#A80036;stroke-width:1.0;" x1="836.65" x2="844.65" y1="752" y2="758"/><line style="stroke:#A80036;stroke-width:1.0;" x1="836.65" x2="844.65" y1="752" y2="752"/><line style="stroke:#A80036;stroke-width:1.0;" x1="834.65" x2="834.65" y1="748" y2="756"/><line style="stroke:#A80036;stroke-width:1.0;" x1="814.34" x2="814.34" y1="756" y2="748"/><line style="stroke:#A80036;stroke-width:1.0;" x1="817.34" x2="817.34" y1="756" y2="748"/><line style="stroke:#A80036;stroke-width:1.0;" x1="818.34" x2="810.34" y1="752" y2="752"/><!--MD5=[b586cd93390877ce2a00a473eaa74a42]
link users_group_roles to users_roles--><path codeLine="145" d="M668.53,752 C668.53,752 687.68,752 687.68,752 " fill="none" id="users_group_roles-users_roles" style="stroke:#A80036;stroke-width:1.0;stroke-dasharray:7.0,7.0;"/><line style="stroke:#A80036;stroke-width:1.0;" x1="691.68" x2="691.68" y1="748" y2="756"/><line style="stroke:#A80036;stroke-width:1.0;" x1="688.68" x2="688.68" y1="748" y2="756"/><line style="stroke:#A80036;stroke-width:1.0;" x1="687.68" x2="695.68" y1="752" y2="752"/><line style="stroke:#A80036;stroke-width:1.0;" x1="668.53" x2="660.53" y1="752" y2="758"/><line style="stroke:#A80036;stroke-width:1.0;" x1="668.53" x2="660.53" y1="752" y2="746"/><line style="stroke:#A80036;stroke-width:1.0;" x1="668.53" x2="660.53" y1="752" y2="752"/><line style="stroke:#A80036;stroke-width:1.0;" x1="670.53" x2="670.53" y1="756" y2="748"/><!--MD5=[ebac78f904ea57dae99a63e695c696cd]
link users_groups to users_group_roles--><path codeLine="146" d="M522.22,752 C522.22,752 541.39,752 541.39,752 " fill="none" id="users_groups-users_group_roles" style="stroke:#A80036;stroke-width:1.0;stroke-dasharray:7.0,7.0;"/><line style="stroke:#A80036;stroke-width:1.0;" x1="541.39" x2="549.39" y1="752" y2="746"/><line style="stroke:#A80036;stroke-width:1.0;" x1="541.39" x2="549.39" y1="752" y2="758"/><line style="stroke:#A80036;stroke-width:1.0;" x1="541.39" x2="549.39" y1="752" y2="752"/><line style="stroke:#A80036;stroke-width:1.0;" x1="539.39" x2="539.39" y1="748" y2="756"/><line style="stroke:#A80036;stroke-width:1.0;" x1="518.22" x2="518.22" y1="756" y2="748"/><line style="stroke:#A80036;stroke-width:1.0;" x1="521.22" x2="521.22" y1="756" y2="748"/><line style="stroke:#A80036;stroke-width:1.0;" x1="522.22" x2="514.22" y1="752" y2="752"/><!--MD5=[641b10bae0ab7252f33423eb742ceaa6]
link users_metadata to users_metadata--><path codeLine="147" d="M633,59.88 C633,59.88 633,59 633,59 C633,59 716,59 716,59 C716,59 716,209 716,209 C716,209 673.75,209 673.75,209 C673.75,209 673.75,207.13 673.75,207.13 " fill="none" id="users_metadata-users_metadata" style="stroke:#A80036;stroke-width:1.0;stroke-dasharray:7.0,7.0;"/><line style="stroke:#A80036;stroke-width:1.0;" x1="673.75" x2="667.75" y1="207.13" y2="199.13"/><line style="stroke:#A80036;stroke-width:1.0;" x1="673.75" x2="679.75" y1="207.13" y2="199.13"/><line style="stroke:#A80036;stroke-width:1.0;" x1="673.75" x2="673.75" y1="207.13" y2="199.13"/><line style="stroke:#A80036;stroke-width:1.0;" x1="669.75" x2="677.75" y1="209.13" y2="209.13"/><line style="stroke:#A80036;stroke-width:1.0;" x1="637" x2="629" y1="63.84" y2="63.84"/><line style="stroke:#A80036;stroke-width:1.0;" x1="637" x2="629" y1="60.84" y2="60.84"/><line style="stroke:#A80036;stroke-width:1.0;" x1="633" x2="633" y1="59.84" y2="67.84"/><!--MD5=[7ad16ad1e359363b04335350928658b8]
link users_providers to users_providers--><path codeLine="148" d="M1023,33.59 C1023,33.59 1023,24 1023,24 C1023,24 1121,24 1121,24 C1121,24 1121,255 1121,255 C1121,255 1025,255 1025,255 C1025,255 1025,233.28 1025,233.28 " fill="none" id="users_providers-users_providers" style="stroke:#A80036;stroke-width:1.0;stroke-dasharray:7.0,7.0;"/><line style="stroke:#A80036;stroke-width:1.0;" x1="1025" x2="1019" y1="233.28" y2="225.28"/><line style="stroke:#A80036;stroke-width:1.0;" x1="1025" x2="1031" y1="233.28" y2="225.28"/><line style="stroke:#A80036;stroke-width:1.0;" x1="1025" x2="1025" y1="233.28" y2="225.28"/><line style="stroke:#A80036;stroke-width:1.0;" x1="1021" x2="1029" y1="235.28" y2="235.28"/><line style="stroke:#A80036;stroke-width:1.0;" x1="1027" x2="1019" y1="37.59" y2="37.59"/><line style="stroke:#A80036;stroke-width:1.0;" x1="1027" x2="1019" y1="34.59" y2="34.59"/><line style="stroke:#A80036;stroke-width:1.0;" x1="1023" x2="1023" y1="33.59" y2="41.59"/><!--MD5=[b0fa352193c465e939decdd1dce3b140]
link users_role_permissions to users_roles--><path codeLine="149" d="M753,628.3 C753,628.3 753,671.71 753,671.71 " fill="none" id="users_role_permissions-users_roles" style="stroke:#A80036;stroke-width:1.0;stroke-dasharray:7.0,7.0;"/><line style="stroke:#A80036;stroke-width:1.0;" x1="757" x2="749" y1="675.71" y2="675.71"/><line style="stroke:#A80036;stroke-width:1.0;" x1="757" x2="749" y1="672.71" y2="672.71"/><line style="stroke:#A80036;stroke-width:1.0;" x1="753" x2="753" y1="671.71" y2="679.71"/><line style="stroke:#A80036;stroke-width:1.0;" x1="753" x2="747" y1="628.3" y2="620.3"/><line style="stroke:#A80036;stroke-width:1.0;" x1="753" x2="759" y1="628.3" y2="620.3"/><line style="stroke:#A80036;stroke-width:1.0;" x1="753" x2="753" y1="628.3" y2="620.3"/><line style="stroke:#A80036;stroke-width:1.0;" x1="749" x2="757" y1="630.3" y2="630.3"/><!--MD5=[b788a6f795bf3a31077ab6fda68e3067]
link users_permissions to users_role_permissions--><path codeLine="150" d="M758,469.69 C758,469.69 758,519.95 758,519.95 " fill="none" id="users_permissions-users_role_permissions" style="stroke:#A80036;stroke-width:1.0;stroke-dasharray:7.0,7.0;"/><line style="stroke:#A80036;stroke-width:1.0;" x1="758" x2="764" y1="519.95" y2="527.95"/><line style="stroke:#A80036;stroke-width:1.0;" x1="758" x2="752" y1="519.95" y2="527.95"/><line style="stroke:#A80036;stroke-width:1.0;" x1="758" x2="758" y1="519.95" y2="527.95"/><line style="stroke:#A80036;stroke-width:1.0;" x1="762" x2="754" y1="517.95" y2="517.95"/><line style="stroke:#A80036;stroke-width:1.0;" x1="754" x2="762" y1="465.69" y2="465.69"/><line style="stroke:#A80036;stroke-width:1.0;" x1="754" x2="762" y1="468.69" y2="468.69"/><line style="stroke:#A80036;stroke-width:1.0;" x1="758" x2="758" y1="469.69" y2="461.69"/><!--MD5=[4dc58ca5d63170c6efbd54aa1ee6effb]
@startuml

' hide the spot
hide circle

' avoid problems with angled crows feet
skinparam linetype ortho

frame "users ERD" {
  entity "users_clients" {
    + id: INT  <<Gen>>
    ==
    name: VARCHAR
    # client_id: VARCHAR
    client_secret: VARCHAR
    redirect_uri: VARCHAR
    auto_approve: TINYINT
    autonomous: TINYINT
    status: ENUM
    suspended: TINYINT
    notes: TINYTEXT
  }
  entity "users_sessions" {
    + id: INT <<Gen>>
    ==
    # client_id: VARCHAR
    redirect_uri: VARCHAR
    type_id: VARCHAR
    type: ENUM
    code: TEXT
    access_token: VARCHAR
    stage: ENUM
    first_requested: INT
    last_updated: INT
    limited_access: TINYINT
  }
  entity "users_sessionscopes" {
    + id: INT <<Gen>>
    ==
    # session_id: INT
    access_token: VARCHAR
    # scope: VARCHAR
  }
  entity "users_scopes" {
    + id: INT <<Gen>>
    ==
    # scope: VARCHAR
    name: VARCHAR
    description: VARCHAR
  }
  users_clients |o.d.o{  users_sessions
  users_sessions |o.d.o{  users_sessionscopes
  users_scopes |o.d.o{  users_sessionscopes
  entity "users_user_roles" {
    + user_id: INT
    + role_id: INT
    ==
  }
  entity "users_permissions" {
    + id: INT <<Gen>>
    ==
    area: VARCHAR
    permission: VARCHAR
    description: VARCHAR
    actions: TEXT
    # user_id: INT
    created_at: INT
    created_by: INT
    updated_at: INT
    updated_by: INT
  }
  entity "users_metadata" {
    + id: INT <<Gen>>
    ==
    # parent_id: INT
    key: VARCHAR
    value: VARCHAR
    # user_id: INT
    created_at: INT
    updated_at: INT
  }
  entity "users_providers" {
    + id: INT <<Gen>>
    ==
    # parent_id: INT
    provider: VARCHAR
    uid: VARCHAR
    secret: VARCHAR
    access_token: VARCHAR
    expires: INT
    refresh_token: VARCHAR
    # user_id: INT
    created_at: INT
    updated_at: INT
  }
  entity "users_group_roles" {
    + group_id: INT
    + role_id: INT
    ==
  }
  entity "users_role_permissions" {
    + id: INT <<Gen>>
    ==
    # role_id: INT
    # perms_id: INT
    actions: TEXT
  }
  entity "users_roles" {
    + id: INT <<Gen>>
    ==
    name: VARCHAR
    filter: ENUM
    # user_id: INT
    created_at: INT
    created_by: INT
    updated_at: INT
    updated_by: INT
  }
  entity "users_groups" {
    + id: INT <<Gen>>
    ==
    name: VARCHAR
    # user_id: INT
    created_at: INT
    updated_at: INT
  }
  entity "users" {
    + id: INT <<Gen>>
    ==
    username: VARCHAR
    password: VARCHAR
    # group_id: INT
    email: VARCHAR
    last_login: VARCHAR
    previous_login: VARCHAR
    login_hash: VARCHAR
    user_id: INT
    created_at: INT
    updated_at: INT
  }
  users }|.l.|| users_metadata
  users }|.r.|| users_providers
  users }|.d.|| users_permissions
  users ||..|{ users_user_roles
  users_roles ||.r.|{ users_user_roles
  users_roles ||.l.|{ users_group_roles
  users_group_roles }|.l.|| users_groups
  users_metadata ||..|{ users_metadata
  users_providers ||..|{ users_providers
  users_role_permissions }|..|| users_roles
  users_permissions ||.d.|{ users_role_permissions
  entity "users_user_permissions" {
    + id: INT <<Gen>>
    ==
    # user_id: INT
    # perms_id: INT
    actions: TEXT
  }
  entity "users_group_permissions" {
    + id: INT <<Gen>>
    ==
    # group_id: INT
    # perms_id: INT
    actions: TEXT
  }
}

@enduml

@startuml

hide circle

skinparam linetype ortho

frame "users ERD" {
  entity "users_clients" {
    + id: INT  <<Gen>>
    ==
    name: VARCHAR
    # client_id: VARCHAR
    client_secret: VARCHAR
    redirect_uri: VARCHAR
    auto_approve: TINYINT
    autonomous: TINYINT
    status: ENUM
    suspended: TINYINT
    notes: TINYTEXT
  }
  entity "users_sessions" {
    + id: INT <<Gen>>
    ==
    # client_id: VARCHAR
    redirect_uri: VARCHAR
    type_id: VARCHAR
    type: ENUM
    code: TEXT
    access_token: VARCHAR
    stage: ENUM
    first_requested: INT
    last_updated: INT
    limited_access: TINYINT
  }
  entity "users_sessionscopes" {
    + id: INT <<Gen>>
    ==
    # session_id: INT
    access_token: VARCHAR
    # scope: VARCHAR
  }
  entity "users_scopes" {
    + id: INT <<Gen>>
    ==
    # scope: VARCHAR
    name: VARCHAR
    description: VARCHAR
  }
  users_clients |o.d.o{  users_sessions
  users_sessions |o.d.o{  users_sessionscopes
  users_scopes |o.d.o{  users_sessionscopes
  entity "users_user_roles" {
    + user_id: INT
    + role_id: INT
    ==
  }
  entity "users_permissions" {
    + id: INT <<Gen>>
    ==
    area: VARCHAR
    permission: VARCHAR
    description: VARCHAR
    actions: TEXT
    # user_id: INT
    created_at: INT
    created_by: INT
    updated_at: INT
    updated_by: INT
  }
  entity "users_metadata" {
    + id: INT <<Gen>>
    ==
    # parent_id: INT
    key: VARCHAR
    value: VARCHAR
    # user_id: INT
    created_at: INT
    updated_at: INT
  }
  entity "users_providers" {
    + id: INT <<Gen>>
    ==
    # parent_id: INT
    provider: VARCHAR
    uid: VARCHAR
    secret: VARCHAR
    access_token: VARCHAR
    expires: INT
    refresh_token: VARCHAR
    # user_id: INT
    created_at: INT
    updated_at: INT
  }
  entity "users_group_roles" {
    + group_id: INT
    + role_id: INT
    ==
  }
  entity "users_role_permissions" {
    + id: INT <<Gen>>
    ==
    # role_id: INT
    # perms_id: INT
    actions: TEXT
  }
  entity "users_roles" {
    + id: INT <<Gen>>
    ==
    name: VARCHAR
    filter: ENUM
    # user_id: INT
    created_at: INT
    created_by: INT
    updated_at: INT
    updated_by: INT
  }
  entity "users_groups" {
    + id: INT <<Gen>>
    ==
    name: VARCHAR
    # user_id: INT
    created_at: INT
    updated_at: INT
  }
  entity "users" {
    + id: INT <<Gen>>
    ==
    username: VARCHAR
    password: VARCHAR
    # group_id: INT
    email: VARCHAR
    last_login: VARCHAR
    previous_login: VARCHAR
    login_hash: VARCHAR
    user_id: INT
    created_at: INT
    updated_at: INT
  }
  users }|.l.|| users_metadata
  users }|.r.|| users_providers
  users }|.d.|| users_permissions
  users ||..|{ users_user_roles
  users_roles ||.r.|{ users_user_roles
  users_roles ||.l.|{ users_group_roles
  users_group_roles }|.l.|| users_groups
  users_metadata ||..|{ users_metadata
  users_providers ||..|{ users_providers
  users_role_permissions }|..|| users_roles
  users_permissions ||.d.|{ users_role_permissions
  entity "users_user_permissions" {
    + id: INT <<Gen>>
    ==
    # user_id: INT
    # perms_id: INT
    actions: TEXT
  }
  entity "users_group_permissions" {
    + id: INT <<Gen>>
    ==
    # group_id: INT
    # perms_id: INT
    actions: TEXT
  }
}

@enduml

PlantUML version 1.2022.0(Wed Jan 12 01:16:42 JST 2022)
(GPL source distribution)
Java Runtime: OpenJDK Runtime Environment
JVM: OpenJDK 64-Bit Server VM
Default Encoding: UTF-8
Language: ja
Country: JP
--></g></svg>